<svg xmlns="http://www.w3.org/2000/svg" xmlns:xlink="http://www.w3.org/1999/xlink" width="256" height="256" preserveAspectRatio="xMidYMid meet" viewBox="0 0 256 256" style="-ms-transform: rotate(360deg); -webkit-transform: rotate(360deg); transform: rotate(360deg);"><path d="M128 24a104 104 0 1 0 104 104A104.118 104.118 0 0 0 128 24zm0 192a88 88 0 1 1 88-88a88.1 88.1 0 0 1-88 88zM112 96v64a8 8 0 0 1-16 0V96a8 8 0 0 1 16 0zm48 0v64a8 8 0 0 1-16 0V96a8 8 0 0 1 16 0z" fill="gold"/><rect x="0" y="0" width="256" height="256" fill="rgba(0, 0, 0, 0)" /></svg>